<svg width="74" height="74" viewBox="0 0 74 74" fill="none" xmlns="http://www.w3.org/2000/svg">
<g clip-path="url(#clip0_7_2)">
<path d="M66.8672 8.7995L37.841 0.0914907C37.4346 -0.0304969 37.0013 -0.0304969 36.5949 0.0914907L7.56809 8.7995C7.12154 8.93349 6.73008 9.20786 6.45179 9.58191C6.1735 9.95596 6.0232 10.4098 6.02319 10.876V42.8052C6.02319 46.9582 7.70453 51.2095 11.0202 55.4409C13.5525 58.6726 17.0561 61.9178 21.4333 65.0863C28.7866 70.4091 36.0274 73.6744 36.3321 73.8107C36.6108 73.9355 36.9126 74 37.218 74C37.5233 74 37.8252 73.9355 38.1038 73.8107C38.4083 73.6744 45.649 70.4091 53.0024 65.0863C57.3795 61.9178 60.8829 58.6726 63.4154 55.4409C66.7311 51.2096 68.4121 46.9584 68.4121 42.8052V10.876C68.4122 10.4097 68.2619 9.95591 67.9836 9.58185C67.7053 9.20779 67.3138 8.93343 66.8672 8.7995Z" fill="white"/>
<path d="M25.303 51.1753V19.8604H33.8045V44.3252H46.465V51.1753H25.303Z" fill="#003D35"/>
<rect x="38.7209" y="19.7906" width="8.60465" height="7.74419" fill="#003D35"/>
</g>
<defs>
<clipPath id="clip0_7_2">
<rect width="74" height="74" fill="white"/>
</clipPath>
</defs>
</svg>
